<?xml version="1.0" encoding="UTF-8" standalone="no"?>
<svg
   xmlns:dc="http://purl.org/dc/elements/1.1/"
   xmlns:cc="http://creativecommons.org/ns#"
   xmlns:rdf="http://www.w3.org/1999/02/22-rdf-syntax-ns#"
   xmlns:svg="http://www.w3.org/2000/svg"
   xmlns="http://www.w3.org/2000/svg"
   xmlns:sodipodi="http://sodipodi.sourceforge.net/DTD/sodipodi-0.dtd"
   xmlns:inkscape="http://www.inkscape.org/namespaces/inkscape"
   id="svg8"
   version="1.1"
   viewBox="0 0 7.9375 7.9375"
   height="7.9375mm"
   width="7.9375mm"
   sodipodi:docname="yanux-youtube-viewer-icon.svg"
   inkscape:version="0.92.4 (5da689c313, 2019-01-14)">
  <sodipodi:namedview
     pagecolor="#ffffff"
     bordercolor="#666666"
     borderopacity="1"
     objecttolerance="10"
     gridtolerance="10"
     guidetolerance="10"
     inkscape:pageopacity="0"
     inkscape:pageshadow="2"
     inkscape:window-width="1920"
     inkscape:window-height="1009"
     id="namedview13"
     showgrid="false"
     inkscape:zoom="8"
     inkscape:cx="65.889617"
     inkscape:cy="-7.1006767"
     inkscape:window-x="0"
     inkscape:window-y="0"
     inkscape:window-maximized="1"
     inkscape:current-layer="svg8" />
  <defs
     id="defs2" />
  <metadata
     id="metadata5">
    <rdf:RDF>
      <cc:Work
         rdf:about="">
        <dc:format>image/svg+xml</dc:format>
        <dc:type
           rdf:resource="http://purl.org/dc/dcmitype/StillImage" />
        <dc:title></dc:title>
      </cc:Work>
    </rdf:RDF>
  </metadata>
  <g
     transform="translate(-0.07015825,-0.03668223)"
     id="layer1">
    <path
       id="rect4528"
       d="M 0.07015825,0.03668223 H 8.0076583 V 7.9741822 H 0.07015825 Z"
       style="fill:#f1b079;fill-opacity:1;stroke-width:0.74151808"
       inkscape:connector-curvature="0" />
    <g
       id="text4524"
       style="font-style:normal;font-weight:normal;font-size:10.58333302px;line-height:1.25;font-family:sans-serif;letter-spacing:0px;word-spacing:0px;fill:#e58b53;fill-opacity:1;stroke:none;stroke-width:0.26458332"
       aria-label="X">
      <path
         d="M 0.99267791,0.1428217 H 2.1140565 L 4.031252,3.0108636 5.9587829,0.1428217 H 7.0801614 L 4.5996928,3.8480218 7.245526,7.8581128 H 6.1241475 L 3.9537374,4.5766595 1.7678244,7.8581128 H 0.64127818 L 3.3956319,3.7395013 Z"
         style="fill:#e58b53;fill-opacity:1;stroke-width:0.26458332"
         id="path67"
         inkscape:connector-curvature="0" />
    </g>
    <g
       id="text4520"
       style="font-style:normal;font-variant:normal;font-weight:normal;font-stretch:normal;font-size:10.78096008px;line-height:1.25;font-family:'Noto Sans';-inkscape-font-specification:'Noto Sans';letter-spacing:0px;word-spacing:0px;fill:#d63a7c;fill-opacity:1;stroke:none;stroke-width:0.26952401"
       transform="scale(0.99750305,1.0025032)"
       aria-label="Y">
      <path
         id="path87"
         style="font-style:normal;font-variant:normal;font-weight:normal;font-stretch:normal;font-family:'Noto Sans';-inkscape-font-specification:'Noto Sans';fill:#d63a7c;fill-opacity:1;stroke-width:0.26952401"
         d="M 4.0463888,3.925383 6.0516473,0.14126598 H 7.0974005 L 4.531532,4.8525455 v 2.986326 H 3.5612456 V 4.8956694 L 0.99537706,0.14126598 H 2.0519112 Z"
         inkscape:connector-curvature="0" />
    </g>
    <g
       id="flowRoot71"
       style="font-style:normal;font-weight:normal;font-size:40px;line-height:1.25;font-family:sans-serif;letter-spacing:0px;word-spacing:0px;fill:#000000;fill-opacity:1;stroke:none" />
    <g
       id="flowRoot79"
       style="font-style:normal;font-weight:normal;font-size:40px;line-height:1.25;font-family:sans-serif;letter-spacing:0px;word-spacing:0px;fill:#000000;fill-opacity:1;stroke:none" />
  </g>
  <g
     transform="matrix(0.0160345,0,0,0.0160345,4.5858834,5.4362602)"
     id="g858">
    <rect
       y="39.972252"
       x="80.245918"
       height="61.41777"
       width="53.328979"
       id="rect842"
       style="fill:#fffffc;fill-opacity:1;stroke-width:0.23649639;stroke-miterlimit:4;stroke-dasharray:none" />
    <g
       transform="matrix(5.9026317,0,0,5.9026317,472.53336,-790.5403)"
       id="g4167">
      <path
         style="fill:#ff0000;fill-opacity:1;fill-rule:nonzero;stroke:none"
         d="m 149.9375,79.222656 c 0,0 -63.218849,5.9e-5 -79.085938,4.123047 -8.495787,2.373802 -15.491408,9.3695 -17.865234,17.990237 -4.122953,15.8671 -4.123047,48.72656 -4.123047,48.72656 0,0 9.4e-5,32.9842 4.123047,48.60156 2.373826,8.62062 9.244506,15.49138 17.865234,17.86524 15.99203,4.24788 79.085938,4.24804 79.085938,4.24804 0,0 63.34418,-5e-5 79.21094,-4.12304 8.62079,-2.37381 15.49133,-9.11966 17.74023,-17.86524 4.24793,-15.74232 4.24805,-48.60156 4.24805,-48.60156 0,0 0.12484,-32.98446 -4.24805,-48.85156 -2.2489,-8.620737 -9.11944,-15.491334 -17.74023,-17.740237 -15.86676,-4.372847 -79.21094,-4.373047 -79.21094,-4.373047 z m -20.11523,40.480464 52.59961,30.35938 -52.59961,30.23438 z"
         transform="matrix(0.16941596,0,0,0.16941596,-88.332912,120.50856)"
         id="path4156"
         inkscape:connector-curvature="0" />
    </g>
  </g>
</svg>
